<?xml version="1.0" standalone="no"?>
<!DOCTYPE svg PUBLIC "-//W3C//DTD SVG 20010904//EN"
 "http://www.w3.org/TR/2001/REC-SVG-20010904/DTD/svg10.dtd">
<svg version="1.0" xmlns="http://www.w3.org/2000/svg"
 width="512.000000pt" height="512.000000pt" viewBox="0 0 512.000000 512.000000"
 preserveAspectRatio="xMidYMid meet">

<g transform="translate(0.000000,512.000000) scale(0.100000,-0.100000)"
fill="#000000" stroke="none">
<path d="M880 4010 l0 -240 238 2 237 3 3 238 2 237 -240 0 -240 0 0 -240z"/>
<path d="M2310 4010 l0 -240 235 0 235 0 0 240 0 240 -235 0 -235 0 0 -240z"/>
<path d="M3335 3869 c-187 -210 -380 -426 -428 -480 l-88 -99 283 1 283 0 420
472 c231 259 422 474 423 479 2 4 -122 8 -275 8 l-278 0 -340 -381z"/>
<path d="M1360 3290 l0 -220 480 0 480 0 0 220 0 220 -480 0 -480 0 0 -220z"/>
<path d="M3690 2600 l0 -270 272 0 273 0 -270 270 c-148 149 -271 270 -272
270 -2 0 -3 -121 -3 -270z"/>
<path d="M880 2570 l0 -240 240 0 240 0 0 240 0 240 -240 0 -240 0 0 -240z"/>
<path d="M2320 2570 l0 -240 240 0 240 0 0 240 0 240 -240 0 -240 0 0 -240z"/>
<path d="M880 1650 l0 -200 25 0 c24 0 24 2 27 88 l3 87 103 3 102 3 0 -91 c0
-89 0 -90 25 -90 l25 0 0 200 0 200 -25 0 c-25 0 -25 -1 -25 -85 l0 -85 -105
0 -105 0 0 85 c0 84 0 85 -25 85 l-25 0 0 -200z"/>
<path d="M1430 1830 c-6 -11 -40 -95 -76 -187 -36 -93 -68 -174 -71 -180 -3
-9 5 -13 25 -13 27 0 31 5 48 53 l19 52 91 3 91 3 19 -53 c17 -47 22 -53 51
-56 l32 -3 -81 200 c-78 196 -81 201 -109 201 -18 0 -32 -7 -39 -20z m69 -125
c17 -44 31 -83 31 -87 0 -5 -30 -8 -66 -8 -49 0 -65 3 -61 13 2 6 17 47 33 89
15 42 29 76 30 75 2 -1 17 -38 33 -82z"/>
<path d="M1740 1650 l0 -200 30 0 30 0 1 148 1 147 25 -55 c13 -30 43 -97 65
-148 38 -86 43 -93 67 -90 23 3 33 19 91 152 l65 148 3 -151 3 -151 24 0 25 0
0 201 0 200 -36 -3 -37 -3 -66 -152 c-36 -83 -68 -154 -71 -157 -3 -3 -37 67
-75 154 l-68 160 -39 0 -38 0 0 -200z"/>
<path d="M2411 1833 c-5 -10 -39 -94 -76 -188 -37 -93 -69 -176 -72 -182 -3
-9 5 -13 25 -13 26 0 31 5 49 53 l20 52 90 3 90 3 20 -53 c18 -47 24 -53 51
-56 l31 -3 -81 200 c-78 196 -81 201 -109 201 -17 0 -32 -7 -38 -17z m73 -136
c14 -37 26 -72 26 -77 0 -6 -29 -10 -66 -10 -59 0 -65 2 -60 18 37 100 61 151
66 145 4 -4 19 -38 34 -76z"/>
<path d="M2720 1650 l0 -200 30 0 30 0 0 80 0 80 30 0 c26 0 34 -8 71 -76 43
-78 53 -88 88 -82 19 3 18 8 -24 82 -25 43 -44 80 -43 80 2 1 15 7 30 14 37
15 61 55 61 102 0 85 -54 120 -188 120 l-85 0 0 -200z m195 125 c14 -13 25
-33 25 -45 0 -11 -11 -32 -25 -45 -20 -21 -34 -25 -80 -25 l-55 0 0 70 0 70
55 0 c46 0 60 -4 80 -25z"/>
<path d="M4053 1279 c-47 -14 -83 -62 -83 -110 0 -70 25 -94 125 -118 87 -21
111 -69 58 -111 -47 -37 -123 -17 -144 37 -9 24 -25 29 -49 13 -13 -8 -12 -14
5 -46 51 -95 209 -97 258 -3 38 74 -7 138 -115 164 -54 14 -72 23 -80 41 -36
78 98 128 141 53 12 -21 21 -27 36 -23 30 9 31 13 15 41 -32 55 -102 82 -167
62z"/>
<path d="M880 1080 l0 -200 25 0 c24 0 25 3 25 58 0 51 4 62 28 85 15 15 31
27 34 27 3 0 35 -38 69 -85 57 -77 66 -85 97 -85 39 0 43 -7 -57 123 l-75 98
50 52 c27 29 65 69 84 90 l34 37 -35 0 c-32 0 -44 -9 -125 -99 -49 -55 -92
-100 -96 -100 -5 -1 -8 44 -8 99 l0 100 -25 0 -25 0 0 -200z"/>
<path d="M1270 1133 c0 -163 9 -198 63 -237 39 -29 125 -29 164 0 54 39 63 74
63 237 l0 147 -30 0 -30 0 0 -154 c0 -137 -2 -156 -19 -177 -15 -19 -29 -24
-65 -24 -76 0 -80 10 -86 193 l-5 157 -27 3 -28 3 0 -148z"/>
<path d="M1690 1081 l0 -201 120 0 120 0 0 25 c0 25 -1 25 -90 25 l-90 0 -2
173 -3 172 -27 3 -28 3 0 -200z"/>
<path d="M1920 1255 c0 -24 2 -25 65 -25 l65 0 0 -175 0 -175 30 0 30 0 0 175
0 175 65 0 c63 0 65 1 65 25 l0 25 -160 0 -160 0 0 -25z"/>
<path d="M2310 1127 c0 -128 3 -158 18 -186 48 -89 184 -93 246 -8 19 26 21
42 21 185 l0 157 -27 3 -28 3 0 -145 c0 -86 -5 -155 -11 -170 -23 -50 -106
-58 -145 -14 -16 17 -19 41 -22 174 l-4 154 -24 0 -24 0 0 -153z"/>
<path d="M2728 1080 l-3 -200 28 0 27 0 0 81 0 80 32 -3 c29 -3 37 -11 76 -80
40 -70 47 -78 74 -78 35 0 35 -1 -20 95 l-41 69 27 12 c93 40 91 170 -3 210
-20 8 -67 14 -114 14 l-80 0 -3 -200z m186 129 c26 -20 35 -61 18 -85 -14 -22
-51 -34 -101 -34 l-51 0 0 70 0 70 54 0 c39 0 60 -6 80 -21z"/>
<path d="M3120 1080 l0 -200 25 0 c24 0 24 2 27 88 l3 87 100 0 100 0 3 -87
c3 -86 3 -88 27 -88 l25 0 0 200 0 200 -25 0 c-25 0 -25 -1 -25 -85 l0 -85
-105 0 -105 0 0 85 c0 84 0 85 -25 85 l-25 0 0 -200z"/>
<path d="M3560 1133 c0 -163 9 -198 63 -237 39 -29 125 -29 164 0 54 39 63 74
63 237 l0 148 -27 -3 -28 -3 -5 -157 c-6 -182 -10 -193 -85 -193 -75 0 -79 11
-85 193 l-5 157 -27 3 -28 3 0 -148z"/>
</g>
</svg>
